PathFileType	4	(X/Y/Z)	C:\Users\Basilio\Documents\Thesis Gigler\squatting_fais\c3dfiles\041\SJ_pre4\markers_experimental.trc
DataRate	CameraRate	NumFrames	NumMarkers	Units	OrigDataRate	OrigDataStartFrame	OrigNumFrames
200.000000	200.000000	4	62	mm	200.000000	1338	1785
Frame#	Time	FHD			LBHD			RBHD			C7			T10			CLAV			LSHO			LUUPA			LMUPA			LDUPA			LLEP			LMEP			LRAD			LUL			LRFIN			RSHO			RUPA1			RMUPA			RDUPA			RLEP			RMEP			RRAD			RUL			RUFIN			LASI			RASI			USACR			LSACR			RSACR			LTHI1			LTHI2			LTHI3			LTHI4			LLFC			LMFC			LTIB1			LTIB2			LTIB3			LTIB4			LLMAL			LMMAL			LHEE			LMT1			LMT2			LMT5			RTHI			RTHI2			RTHI3			RTHI4			RLFC			RMFC			RTIB1			RTIB2			RTIB3			RTIB4			RLMAL			RMMAL			RHEE			RMT1			RMT2			RMT5			*61			
		X1	Y1	Z1	X2	Y2	Z2	X3	Y3	Z3	X4	Y4	Z4	X5	Y5	Z5	X6	Y6	Z6	X7	Y7	Z7	X8	Y8	Z8	X9	Y9	Z9	X10	Y10	Z10	X11	Y11	Z11	X12	Y12	Z12	X13	Y13	Z13	X14	Y14	Z14	X15	Y15	Z15	X16	Y16	Z16	X17	Y17	Z17	X18	Y18	Z18	X19	Y19	Z19	X20	Y20	Z20	X21	Y21	Z21	X22	Y22	Z22	X23	Y23	Z23	X24	Y24	Z24	X25	Y25	Z25	X26	Y26	Z26	X27	Y27	Z27	X28	Y28	Z28	X29	Y29	Z29	X30	Y30	Z30	X31	Y31	Z31	X32	Y32	Z32	X33	Y33	Z33	X34	Y34	Z34	X35	Y35	Z35	X36	Y36	Z36	X37	Y37	Z37	X38	Y38	Z38	X39	Y39	Z39	X40	Y40	Z40	X41	Y41	Z41	X42	Y42	Z42	X43	Y43	Z43	X44	Y44	Z44	X45	Y45	Z45	X46	Y46	Z46	X47	Y47	Z47	X48	Y48	Z48	X49	Y49	Z49	X50	Y50	Z50	X51	Y51	Z51	X52	Y52	Z52	X53	Y53	Z53	X54	Y54	Z54	X55	Y55	Z55	X56	Y56	Z56	X57	Y57	Z57	X58	Y58	Z58	X59	Y59	Z59	X60	Y60	Z60	X61	Y61	Z61	X62	Y62	Z62	

1339	6.69	-189.8518218994141	1620.691650390625	-936.7242431640627	-349.0011291503907	1523.34375	-1019.966796875	-337.9649658203126	1530.013549804688	-867.6604614257815	-383.3339843750001	1410.589477539063	-957.0415039062502	-469.312225341797	1101.528442382813	-947.0068969726565	-226.5360565185547	1319.709594726563	-943.8184204101565	-270.2264709472657	1374.441650390625	-1125.013061523438	-338.5536804199219	1251.835571289063	-1267.450805664063	-333.0329284667969	1202.742919921875	-1263.117797851563	-368.1058044433594	1207.916259765625	-1312.010131835938	-389.6334228515626	1164.780029296875	-1338.717041015625	-463.499481201172	1147.000122070313	-1286.256103515625	-374.6317138671876	979.2981567382815	-1149.057006835938	-364.5738525390626	927.2707519531252	-1203.702514648438	-333.4975585937501	953.9080810546877	-1107.274658203125	-279.7215270996094	1388.99267578125	-775.8336181640627	-375.6914367675782	1261.330932617188	-614.9905395507814	-342.8092041015626	1222.610473632813	-621.8645019531251	-374.5706176757813	1200.093383789063	-578.9357299804689	-382.4335021972657	1151.822631835938	-561.2783203125001	-460.3176574707032	1144.056030273438	-614.2915039062501	-403.8947753906251	960.487731933594	-732.8861694335939	-364.9092102050782	942.4429321289065	-777.798767089844	-378.3903198242188	913.2770996093752	-676.8321533203126	-304.5197448730469	900.0664672851565	-1039.93701171875	-328.5904235839844	880.2967529296877	-831.7392578125002	-494.4494934082032	980.0962524414065	-950.6726074218752	-508.5966796875001	955.3992309570315	-980.1296997070315	-516.9286499023439	953.9995727539065	-925.5681152343752	-369.8337402343751	714.4856567382814	-1158.271850585938	-302.6268920898438	664.0097656250001	-1170.992553710938	-262.1557922363282	684.6591796875001	-1159.531127929688	-303.6324462890626	601.5834350585939	-1174.4404296875	-219.4422607421876	453.1039428710939	-1191.045043945313	-204.2137451171876	415.1215820312501	-1081.752807617188	-264.7324218750001	263.7096252441407	-1164.610107421875	-328.5635070800782	255.6622924804688	-1228.422485351563	-296.3786926269532	233.1583099365235	-1205.254150390625	-335.1300048828126	161.7785339355469	-1182.139892578125	-431.5291748046876	105.2153778076172	-1232.781127929688	-394.3432617187501	101.5943603515625	-1148.952758789063	-498.4724426269532	57.57923507690431	-1199.892822265625	-281.0364685058594	58.41026687622072	-1178.978515625	-276.2369689941407	55.7219924926758	-1223.165161132813	-317.4944152832032	32.90816116333009	-1279.758056640625	-354.0187072753907	645.8779296875001	-742.6460571289064	-295.7070617675782	618.6915283203126	-727.2330932617189	-266.5106201171876	635.0745849609376	-730.2173461914064	-278.5423583984376	535.0051879882814	-737.5430297851564	-234.5710906982422	438.6288452148439	-719.2130737304689	-207.3561248779297	410.1069641113282	-828.5426025390627	-259.8776550292969	277.2269897460938	-718.8765258789064	-369.9089355468751	245.9949645996094	-702.6589355468751	-328.2108459472657	224.3502197265626	-705.2569580078126	-331.4672851562501	171.552719116211	-732.4968261718751	-435.9967041015626	94.35672760009767	-712.8706665039064	-404.2001037597657	99.52626037597659	-793.8845825195315	-500.8191833496095	51.50654220581056	-759.9257812500001	-282.1366577148438	51.83300781250001	-754.0088500976564	-282.5972290039063	54.31294250488283	-701.9158935546876	-330.1077575683594	34.38515090942384	-654.1112670898439	-4216.903320312501	853.1601562500002	-3944.609375000001	
1340	6.695	-189.5535430908203	1617.94921875	-937.0020141601565	-349.4332580566407	1521.165649414063	-1020.184753417969	-337.9841308593751	1527.991943359375	-867.8093872070315	-384.4486083984376	1408.2509765625	-957.1160888671877	-470.0899963378907	1099.50732421875	-947.3552856445315	-227.4776153564454	1317.023681640625	-944.1151123046877	-270.9129638671876	1372.235473632813	-1125.2802734375	-339.1827392578126	1249.96240234375	-1267.871337890625	-334.9338989257813	1200.713500976563	-1262.990234375	-369.4679260253907	1206.300048828125	-1312.487915039063	-391.2330932617189	1163.470092773438	-1339.193359375	-465.2822265625001	1146.229858398438	-1286.53369140625	-376.6753845214844	977.9060058593752	-1149.423950195313	-366.4869079589844	926.1544189453127	-1204.354858398438	-335.1269531250001	952.5533447265627	-1107.736083984375	-280.2152404785157	1386.845825195313	-776.2868652343752	-376.5930786132813	1260.007446289063	-614.9234619140626	-343.9431457519532	1221.226928710938	-621.6021728515626	-375.7739868164063	1198.746459960938	-578.7799072265626	-383.8080139160157	1150.975952148438	-561.0357055664064	-461.5574951171876	1143.186401367188	-613.9769287109376	-405.605194091797	959.4062500000002	-732.5962524414064	-365.9181213378907	941.4858398437502	-777.6931762695315	-380.2242736816407	912.2854003906252	-676.6985473632814	-305.2311096191407	898.1478271484377	-1040.640747070313	-329.8086547851563	879.0554199218752	-831.2288818359377	-495.4877319335939	977.7112426757815	-951.015563964844	-509.5264282226564	952.815124511719	-980.3909301757815	-518.0128173828126	951.6462402343752	-925.902526855469	-370.1405029296876	711.6649780273439	-1158.104125976563	-302.9485168457032	661.3765258789064	-1171.068603515625	-261.8738708496094	681.9932861328126	-1159.94287109375	-303.3745422363282	598.5124511718751	-1173.62158203125	-218.4216461181641	451.3601684570314	-1191.096557617188	-203.1992645263672	412.9957275390626	-1082.323608398438	-264.1822814941407	262.8505249023438	-1164.590942382813	-328.4878540039063	255.2237396240235	-1228.45654296875	-295.9673461914063	232.426010131836	-1205.389038085938	-334.9523620605469	161.14794921875	-1182.489135742188	-431.6867065429689	105.2566604614258	-1232.4638671875	-394.3746337890626	101.3758773803711	-1148.660034179688	-498.4985351562501	57.40248107910158	-1199.779052734375	-281.1019287109376	58.35836410522462	-1178.907958984375	-276.2256774902344	55.94788742065431	-1223.023803710938	-317.4763793945313	33.03194046020509	-1279.658447265625	-354.5903320312501	642.6454467773439	-743.6735229492189	-296.2387390136719	615.5642700195314	-728.0144653320314	-266.9997253417969	632.2030639648439	-730.2811889648439	-278.6831054687501	532.0197143554689	-739.6467285156251	-234.5049133300782	438.0553588867189	-720.0491943359376	-205.8359985351563	408.8557128906251	-828.6741333007815	-258.6223144531251	276.7474975585938	-719.2932128906251	-369.0805969238282	246.2543029785157	-702.7505493164064	-327.6104736328126	224.2873077392579	-705.1539916992189	-331.0165405273438	171.4982452392578	-732.4780273437501	-435.7409973144532	94.51600646972658	-712.9822387695314	-404.1776123046876	99.5216979980469	-794.0158691406252	-500.639129638672	51.63027572631837	-760.0175170898439	-281.9742736816407	51.7705764770508	-754.0642089843751	-282.6639709472657	54.27824020385744	-701.9584960937501	-330.0756835937501	34.49618530273438	-654.1663818359376	-4216.853027343751	853.1079101562502	-3944.564453125001	
1341	6.7	-189.9996795654297	1615.98046875	-937.5727539062502	-349.8157653808594	1519.497924804688	-1020.403503417969	-338.2818298339844	1526.444091796875	-867.9209594726565	-385.279998779297	1406.219848632813	-957.3043212890627	-471.0203857421876	1097.833862304688	-947.8668212890627	-228.290267944336	1315.127075195313	-944.5867919921877	-272.1630249023438	1370.528076171875	-1125.465087890625	-339.9160461425782	1248.180786132813	-1268.1611328125	-336.6853027343751	1199.372680664063	-1262.966552734375	-370.8090209960938	1204.833984375	-1312.68408203125	-392.8987426757814	1162.499145507813	-1339.566040039063	-466.7125854492189	1145.599243164063	-1286.743530273438	-378.4944763183594	976.768981933594	-1149.8876953125	-368.7251586914063	925.3209228515627	-1204.773193359375	-336.6370849609376	951.4716796875002	-1108.436767578125	-280.8036193847657	1385.0126953125	-776.5947875976565	-377.3142700195313	1259.028442382813	-615.0647583007814	-344.6075134277344	1219.9326171875	-621.3648071289064	-376.8490905761719	1197.835815429688	-578.5059814453126	-385.2789001464845	1150.266967773438	-560.7203979492189	-462.7463684082032	1142.5048828125	-613.9277343750001	-407.2357177734376	958.6688232421877	-732.6403198242189	-367.5192260742188	940.6519165039065	-777.492614746094	-381.8551025390626	911.4091796875002	-676.6770019531251	-306.3591918945313	896.9736938476565	-1041.252807617188	-330.3288269042969	878.3612060546877	-831.1929931640627	-496.3905639648439	975.6555175781252	-951.3847656250002	-510.6113586425782	950.685485839844	-980.7351074218752	-518.9432373046876	949.6270751953127	-926.2983398437502	-370.3791809082032	708.5354003906251	-1157.846069335938	-303.2341918945313	658.4550170898439	-1171.156005859375	-262.5434570312501	679.5028076171876	-1160.557373046875	-303.4375610351563	595.6843872070314	-1172.642944335938	-218.1557006835938	450.3573303222657	-1191.182006835938	-201.5112915039063	411.1983032226564	-1082.83544921875	-263.3709411621094	262.3132629394532	-1164.521606445313	-327.7453002929688	254.5367584228516	-1228.467651367188	-295.4641113281251	232.1061706542969	-1205.290161132813	-334.5139465332032	161.0980224609375	-1182.449340820313	-431.578338623047	105.2149124145508	-1232.272216796875	-394.3308410644532	101.2848358154297	-1148.48876953125	-498.4509277343751	57.36418533325197	-1199.688354492188	-281.0807189941407	58.34088134765626	-1178.844848632813	-276.2287902832032	56.0159378051758	-1222.988159179688	-317.3945617675782	33.12305450439454	-1279.620849609375	-355.0199279785157	639.8224487304689	-744.3204956054689	-296.7789611816407	612.5729980468751	-728.3927612304689	-267.4261474609376	629.3121337890626	-730.4141845703126	-278.7900695800782	529.4241333007814	-741.7341308593751	-233.3388824462891	437.8042297363282	-720.6955566406251	-204.7548065185547	408.5817871093751	-829.2568969726565	-258.0188598632813	276.2693176269532	-719.4368286132814	-368.1200561523438	246.3274536132813	-703.1245727539064	-326.9985656738282	223.9474487304688	-705.5491333007814	-330.6864013671876	171.3369598388672	-732.6461791992189	-435.5282287597657	94.50540924072267	-713.1030273437501	-404.1387939453126	99.44376373291018	-794.1853027343752	-500.6173706054689	51.64707946777345	-760.0797729492189	-281.9511718750001	51.74853897094728	-754.1625976562501	-282.6369018554688	54.56338500976564	-701.9676513671876	-330.0953063964844	34.63292694091798	-654.2725219726564	-4216.791503906251	853.1104125976565	-3944.812500000001	
1342	6.705	-189.8963317871094	1613.873168945313	-937.9697265625002	-350.2646179199219	1518.105224609375	-1020.606872558594	-338.6560974121094	1525.019287109375	-868.2658691406252	-386.0324096679689	1404.834838867188	-957.4295043945315	-472.0120849609376	1096.342041015625	-948.3240356445315	-229.1603088378907	1313.57177734375	-944.8513793945315	-273.2762756347657	1369.115112304688	-1125.653076171875	-340.8169860839844	1246.907104492188	-1268.4951171875	-337.3456115722657	1197.570678710938	-1263.51171875	-371.8038635253907	1203.510864257813	-1313.067138671875	-394.344207763672	1161.495239257813	-1339.779907226563	-468.4346923828126	1144.889770507813	-1287.013793945313	-379.8721008300782	975.5979003906252	-1150.534790039063	-370.3188781738282	924.098571777344	-1205.55322265625	-338.2489013671876	950.230407714844	-1109.082641601563	-281.3967590332032	1383.488403320313	-777.0808715820315	-378.1622009277344	1258.21826171875	-614.8727416992189	-345.7165527343751	1219.070190429688	-621.2374877929689	-377.9095458984376	1197.037353515625	-578.2798461914064	-386.0239868164064	1149.580444335938	-560.8153686523439	-463.8531799316407	1142.084228515625	-613.8273315429689	-408.5301818847657	957.997009277344	-732.7063598632814	-368.3782958984376	940.131774902344	-777.7669677734377	-383.4620056152344	910.9038085937502	-676.7733764648439	-307.9586486816407	895.897399902344	-1042.104125976563	-331.2915039062501	877.724304199219	-831.1085205078127	-497.3472290039064	973.9470214843752	-951.961364746094	-511.564178466797	948.9903564453127	-981.1528930664065	-519.7482299804689	947.9066162109377	-926.5988769531252	-370.8236389160157	705.4767456054689	-1157.462768554688	-303.6246643066407	655.3289184570314	-1171.383544921875	-262.3097229003907	676.3336181640626	-1161.04345703125	-303.4421997070313	592.4493408203126	-1171.31640625	-216.8749542236329	449.4034729003907	-1191.015869140625	-200.170394897461	409.655731201172	-1082.83203125	-262.4250488281251	261.7159729003907	-1164.572265625	-327.0068969726563	254.2927398681641	-1228.309448242188	-294.8554382324219	231.8985748291016	-1205.114501953125	-333.9859313964844	160.7721862792969	-1182.310180664063	-431.4519348144532	105.2381286621094	-1232.156494140625	-394.2982788085939	101.2782974243164	-1148.347534179688	-498.4054260253907	57.3226776123047	-1199.653686523438	-281.0686340332032	58.34962844848634	-1178.799926757813	-275.9843444824219	56.24753189086915	-1223.100952148438	-317.3274230957032	33.20056915283204	-1279.550903320313	-355.2779235839844	637.0425415039064	-745.6931762695314	-297.1582031250001	610.0831298828126	-728.9424438476564	-267.7923583984376	626.7396850585939	-730.5797729492189	-278.7583007812501	527.0791015625001	-743.2325439453126	-232.0039978027344	437.6728515625001	-720.9536743164064	-203.0832519531251	408.2735595703126	-829.8833007812502	-257.3614501953126	275.5291137695313	-720.0230102539064	-367.5998840332032	246.1638488769532	-703.3120117187501	-326.2934570312501	223.5780792236329	-705.9515991210939	-330.4924316406251	170.9766082763672	-732.9832763671876	-435.4799194335939	94.50838470458986	-713.2153320312501	-404.1661376953126	99.33773040771487	-794.315124511719	-500.5403442382814	51.58724975585939	-760.1099243164064	-281.9743957519532	51.73865890502931	-754.1742553710939	-282.6271667480469	54.6518020629883	-702.0605468750001	-330.0731811523438	34.70849227905274	-654.3544921875001	-4217.005859375001	853.1677246093752	-3944.753662109376	
